<svg width="209" height="45" viewBox="0 0 209 45" fill="none" xmlns="http://www.w3.org/2000/svg">
<rect width="209" height="45" rx="22.5" fill="#EB1700"/>
<path d="M74.1871 22.7C74.1871 20.36 75.9871 18.56 78.2371 18.56C80.4871 18.56 82.2871 20.36 82.2871 22.7C82.2871 25.04 80.4871 26.84 78.2371 26.84C75.9871 26.84 74.1871 25.04 74.1871 22.7ZM71.3971 22.7C71.3971 26.3 74.3671 29.27 78.2371 29.27C82.1071 29.27 85.0771 26.3 85.0771 22.7C85.0771 19.1 82.1071 16.13 78.2371 16.13C74.3671 16.13 71.3971 19.1 71.3971 22.7ZM92.3734 20.09H92.0134C90.3934 20.09 89.4934 21.26 89.4934 21.26V20.18H87.0634V29H89.4934V24.77C89.4934 23.24 90.3034 22.43 91.5634 22.43C92.1034 22.43 92.3734 22.52 92.3734 22.52V20.09ZM97.4155 20C95.1655 20 93.1855 21.98 93.1855 24.59C93.1855 27.2 95.1655 29.18 97.4155 29.18C99.1255 29.18 100.026 27.92 100.026 27.92V29H102.456V16.4H100.026V21.26C100.026 21.26 99.1255 20 97.4155 20ZM97.8655 27.02C96.6955 27.02 95.7055 26.03 95.7055 24.59C95.7055 23.15 96.6955 22.16 97.8655 22.16C99.0355 22.16 100.026 23.15 100.026 24.59C100.026 26.03 99.0355 27.02 97.8655 27.02ZM113.258 25.4C113.258 25.4 113.348 25.04 113.348 24.41C113.348 21.89 111.458 20 108.938 20C106.418 20 104.348 22.07 104.348 24.59C104.348 27.11 106.418 29.18 109.028 29.18C111.458 29.18 112.808 27.65 112.808 27.65L111.548 26.03C111.548 26.03 110.738 27.11 109.208 27.11C107.858 27.11 107.048 26.3 106.868 25.4H113.258ZM108.938 22.07C110.018 22.07 110.738 22.79 110.918 23.69H106.868C107.138 22.79 107.858 22.07 108.938 22.07ZM120.463 20.09H120.103C118.483 20.09 117.583 21.26 117.583 21.26V20.18H115.153V29H117.583V24.77C117.583 23.24 118.393 22.43 119.653 22.43C120.193 22.43 120.463 22.52 120.463 22.52V20.09ZM128.117 22.7C128.117 20.36 129.917 18.56 132.167 18.56C134.417 18.56 136.217 20.36 136.217 22.7C136.217 25.04 134.417 26.84 132.167 26.84C129.917 26.84 128.117 25.04 128.117 22.7ZM125.327 22.7C125.327 26.3 128.297 29.27 132.167 29.27C136.037 29.27 139.007 26.3 139.007 22.7C139.007 19.1 136.037 16.13 132.167 16.13C128.297 16.13 125.327 19.1 125.327 22.7ZM143.423 20.18H140.993V29H143.423V24.41C143.423 23.06 144.143 22.34 145.223 22.34C146.213 22.34 146.933 23.06 146.933 24.14V29H149.363V23.87C149.363 21.44 147.923 20 145.943 20C144.323 20 143.423 21.26 143.423 21.26V20.18ZM154.218 16.4H151.788V29H154.218V16.4ZM159.175 20.18H156.745V29H159.175V20.18ZM159.355 17.66C159.355 16.85 158.815 16.31 157.915 16.31C157.105 16.31 156.565 16.85 156.565 17.66C156.565 18.47 157.105 19.01 157.915 19.01C158.815 19.01 159.355 18.47 159.355 17.66ZM164.042 20.18H161.612V29H164.042V24.41C164.042 23.06 164.762 22.34 165.842 22.34C166.832 22.34 167.552 23.06 167.552 24.14V29H169.982V23.87C169.982 21.44 168.542 20 166.562 20C164.942 20 164.042 21.26 164.042 21.26V20.18ZM180.687 25.4C180.687 25.4 180.777 25.04 180.777 24.41C180.777 21.89 178.887 20 176.367 20C173.847 20 171.777 22.07 171.777 24.59C171.777 27.11 173.847 29.18 176.457 29.18C178.887 29.18 180.237 27.65 180.237 27.65L178.977 26.03C178.977 26.03 178.167 27.11 176.637 27.11C175.287 27.11 174.477 26.3 174.297 25.4H180.687ZM176.367 22.07C177.447 22.07 178.167 22.79 178.347 23.69H174.297C174.567 22.79 175.287 22.07 176.367 22.07Z" fill="white"/>
<path d="M57.0722 18.7947C55.8262 16.4442 53.3909 15 50.7573 15H30.6796C30.3115 15 30 15.3115 30 15.708C30 15.8779 30.085 16.0478 30.1982 16.1894L34.5592 20.5788C34.9557 20.9752 35.4654 21.2018 36.0035 21.1735H50.1343C51.1537 21.1735 51.975 21.9664 51.975 22.9858C51.975 24.0053 51.1821 24.8265 50.1626 24.8265H40.4494C40.0813 24.8265 39.7698 25.1381 39.7698 25.5345C39.7698 25.7044 39.8548 25.8743 39.968 26.0159L44.329 30.4053C44.7255 30.8018 45.2352 31 45.8016 31H50.2192C55.9395 31 60.2722 24.8832 57.0722 18.7947Z" fill="white"/>
</svg>
